  0
SECTION
  2
HEADER
  9
$ACADVER
  1
AC1024
  9
$ACADMAINTVER
 70
6
  9
$DWGCODEPAGE
  3
ANSI_1252
  9
$LASTSAVEDBY
  1
ezdxf
  9
$INSBASE
 10
0.0
 20
0.0
 30
0.0
  9
$EXTMIN
 10
1e+20
 20
1e+20
 30
1e+20
  9
$EXTMAX
 10
-1e+20
 20
-1e+20
 30
-1e+20
  9
$LIMMIN
 10
0.0
 20
0.0
  9
$LIMMAX
 10
420.0
 20
297.0
  9
$ORTHOMODE
 70
0
  9
$REGENMODE
 70
1
  9
$FILLMODE
 70
1
  9
$QTEXTMODE
 70
0
  9
$MIRRTEXT
 70
1
  9
$LTSCALE
 40
1.0
  9
$ATTMODE
 70
1
  9
$TEXTSIZE
 40
2.5
  9
$TRACEWID
 40
1.0
  9
$TEXTSTYLE
  7
Standard
  9
$CLAYER
  8
0
  9
$CELTYPE
  6
ByLayer
  9
$CECOLOR
 62
256
  9
$CELTSCALE
 40
1.0
  9
$DISPSILH
 70
0
  9
$DIMSCALE
 40
1.0
  9
$DIMASZ
 40
2.5
  9
$DIMEXO
 40
0.625
  9
$DIMDLI
 40
3.75
  9
$DIMRND
 40
0.0
  9
$DIMDLE
 40
0.0
  9
$DIMEXE
 40
1.25
  9
$DIMTP
 40
0.0
  9
$DIMTM
 40
0.0
  9
$DIMTXT
 40
2.5
  9
$DIMCEN
 40
2.5
  9
$DIMTSZ
 40
0.0
  9
$DIMTOL
 70
0
  9
$DIMLIM
 70
0
  9
$DIMTIH
 70
0
  9
$DIMTOH
 70
0
  9
$DIMSE1
 70
0
  9
$DIMSE2
 70
0
  9
$DIMTAD
 70
1
  9
$DIMZIN
 70
8
  9
$DIMBLK
  1

  9
$DIMASO
 70
1
  9
$DIMSHO
 70
1
  9
$DIMPOST
  1

  9
$DIMAPOST
  1

  9
$DIMALT
 70
0
  9
$DIMALTD
 70
3
  9
$DIMALTF
 40
0.03937007874
  9
$DIMLFAC
 40
1.0
  9
$DIMTOFL
 70
1
  9
$DIMTVP
 40
0.0
  9
$DIMTIX
 70
0
  9
$DIMSOXD
 70
0
  9
$DIMSAH
 70
0
  9
$DIMBLK1
  1

  9
$DIMBLK2
  1

  9
$DIMSTYLE
  2
ISO-25
  9
$DIMCLRD
 70
0
  9
$DIMCLRE
 70
0
  9
$DIMCLRT
 70
0
  9
$DIMTFAC
 40
1.0
  9
$DIMGAP
 40
0.625
  9
$DIMJUST
 70
0
  9
$DIMSD1
 70
0
  9
$DIMSD2
 70
0
  9
$DIMTOLJ
 70
0
  9
$DIMTZIN
 70
8
  9
$DIMALTZ
 70
0
  9
$DIMALTTZ
 70
0
  9
$DIMUPT
 70
0
  9
$DIMDEC
 70
2
  9
$DIMTDEC
 70
2
  9
$DIMALTU
 70
2
  9
$DIMALTTD
 70
3
  9
$DIMTXSTY
  7
Standard
  9
$DIMAUNIT
 70
0
  9
$DIMADEC
 70
0
  9
$DIMALTRND
 40
0.0
  9
$DIMAZIN
 70
0
  9
$DIMDSEP
 70
44
  9
$DIMATFIT
 70
3
  9
$DIMFRAC
 70
0
  9
$DIMLDRBLK
  1

  9
$DIMLUNIT
 70
2
  9
$DIMLWD
 70
-2
  9
$DIMLWE
 70
-2
  9
$DIMTMOVE
 70
0
  9
$DIMFXL
 40
1.0
  9
$DIMFXLON
 70
0
  9
$DIMJOGANG
 40
0.785398163397
  9
$DIMTFILL
 70
0
  9
$DIMTFILLCLR
 70
0
  9
$DIMARCSYM
 70
0
  9
$DIMLTYPE
  6

  9
$DIMLTEX1
  6

  9
$DIMLTEX2
  6

  9
$DIMTXTDIRECTION
 70
0
  9
$LUNITS
 70
2
  9
$LUPREC
 70
4
  9
$SKETCHINC
 40
1.0
  9
$FILLETRAD
 40
10.0
  9
$AUNITS
 70
0
  9
$AUPREC
 70
2
  9
$MENU
  1
.
  9
$ELEVATION
 40
0.0
  9
$PELEVATION
 40
0.0
  9
$THICKNESS
 40
0.0
  9
$LIMCHECK
 70
0
  9
$CHAMFERA
 40
0.0
  9
$CHAMFERB
 40
0.0
  9
$CHAMFERC
 40
0.0
  9
$CHAMFERD
 40
0.0
  9
$SKPOLY
 70
0
  9
$TDCREATE
 40
2460681.6118171294
  9
$TDUCREATE
 40
2458532.153996898
  9
$TDUPDATE
 40
2460681.6118171294
  9
$TDUUPDATE
 40
2458532.1544311
  9
$TDINDWG
 40
0.0
  9
$TDUSRTIMER
 40
0.0
  9
$USRTIMER
 70
1
  9
$ANGBASE
 50
0.0
  9
$ANGDIR
 70
0
  9
$PDMODE
 70
0
  9
$PDSIZE
 40
0.0
  9
$PLINEWID
 40
0.0
  9
$SPLFRAME
 70
0
  9
$SPLINETYPE
 70
6
  9
$SPLINESEGS
 70
8
  9
$HANDSEED
  5
3F
  9
$SURFTAB1
 70
6
  9
$SURFTAB2
 70
6
  9
$SURFTYPE
 70
6
  9
$SURFU
 70
6
  9
$SURFV
 70
6
  9
$UCSBASE
  2

  9
$UCSNAME
  2

  9
$UCSORG
 10
0.0
 20
0.0
 30
0.0
  9
$UCSXDIR
 10
1.0
 20
0.0
 30
0.0
  9
$UCSYDIR
 10
0.0
 20
1.0
 30
0.0
  9
$UCSORTHOREF
  2

  9
$UCSORTHOVIEW
 70
0
  9
$UCSORGTOP
 10
0.0
 20
0.0
 30
0.0
  9
$UCSORGBOTTOM
 10
0.0
 20
0.0
 30
0.0
  9
$UCSORGLEFT
 10
0.0
 20
0.0
 30
0.0
  9
$UCSORGRIGHT
 10
0.0
 20
0.0
 30
0.0
  9
$UCSORGFRONT
 10
0.0
 20
0.0
 30
0.0
  9
$UCSORGBACK
 10
0.0
 20
0.0
 30
0.0
  9
$PUCSBASE
  2

  9
$PUCSNAME
  2

  9
$PUCSORG
 10
0.0
 20
0.0
 30
0.0
  9
$PUCSXDIR
 10
1.0
 20
0.0
 30
0.0
  9
$PUCSYDIR
 10
0.0
 20
1.0
 30
0.0
  9
$PUCSORTHOREF
  2

  9
$PUCSORTHOVIEW
 70
0
  9
$PUCSORGTOP
 10
0.0
 20
0.0
 30
0.0
  9
$PUCSORGBOTTOM
 10
0.0
 20
0.0
 30
0.0
  9
$PUCSORGLEFT
 10
0.0
 20
0.0
 30
0.0
  9
$PUCSORGRIGHT
 10
0.0
 20
0.0
 30
0.0
  9
$PUCSORGFRONT
 10
0.0
 20
0.0
 30
0.0
  9
$PUCSORGBACK
 10
0.0
 20
0.0
 30
0.0
  9
$USERI1
 70
0
  9
$USERI2
 70
0
  9
$USERI3
 70
0
  9
$USERI4
 70
0
  9
$USERI5
 70
0
  9
$USERR1
 40
0.0
  9
$USERR2
 40
0.0
  9
$USERR3
 40
0.0
  9
$USERR4
 40
0.0
  9
$USERR5
 40
0.0
  9
$WORLDVIEW
 70
1
  9
$SHADEDGE
 70
3
  9
$SHADEDIF
 70
70
  9
$TILEMODE
 70
1
  9
$MAXACTVP
 70
64
  9
$PINSBASE
 10
0.0
 20
0.0
 30
0.0
  9
$PLIMCHECK
 70
0
  9
$PEXTMIN
 10
1e+20
 20
1e+20
 30
1e+20
  9
$PEXTMAX
 10
-1e+20
 20
-1e+20
 30
-1e+20
  9
$PLIMMIN
 10
0.0
 20
0.0
  9
$PLIMMAX
 10
420.0
 20
297.0
  9
$UNITMODE
 70
0
  9
$VISRETAIN
 70
1
  9
$PLINEGEN
 70
0
  9
$PSLTSCALE
 70
1
  9
$TREEDEPTH
 70
3020
  9
$CMLSTYLE
  2
Standard
  9
$CMLJUST
 70
0
  9
$CMLSCALE
 40
20.0
  9
$PROXYGRAPHICS
 70
1
  9
$MEASUREMENT
 70
1
  9
$CELWEIGHT
370
-1
  9
$ENDCAPS
280
0
  9
$JOINSTYLE
280
0
  9
$LWDISPLAY
290
0
  9
$INSUNITS
 70
6
  9
$HYPERLINKBASE
  1

  9
$STYLESHEET
  1

  9
$XEDIT
290
1
  9
$CEPSNTYPE
380
0
  9
$PSTYLEMODE
290
1
  9
$FINGERPRINTGUID
  2
{71647BE4-559D-455A-85B2-B5D25FCE6C35}
  9
$VERSIONGUID
  2
{46935E41-7D49-4D18-8A19-C1B8B3069B6F}
  9
$EXTNAMES
290
1
  9
$PSVPSCALE
 40
0.0
  9
$OLESTARTUP
290
0
  9
$SORTENTS
280
127
  9
$INDEXCTL
280
0
  9
$HIDETEXT
280
1
  9
$XCLIPFRAME
280
1
  9
$HALOGAP
280
0
  9
$OBSCOLOR
 70
257
  9
$OBSLTYPE
280
0
  9
$INTERSECTIONDISPLAY
280
0
  9
$INTERSECTIONCOLOR
 70
257
  9
$DIMASSOC
280
2
  9
$PROJECTNAME
  1

  9
$CAMERADISPLAY
290
0
  9
$LENSLENGTH
 40
50.0
  9
$CAMERAHEIGHT
 40
0.0
  9
$STEPSPERSEC
 40
24.0
  9
$STEPSIZE
 40
100.0
  9
$3DDWFPREC
 40
2.0
  9
$PSOLWIDTH
 40
0.005
  9
$PSOLHEIGHT
 40
0.08
  9
$LOFTANG1
 40
1.570796326795
  9
$LOFTANG2
 40
1.570796326795
  9
$LOFTMAG1
 40
0.0
  9
$LOFTMAG2
 40
0.0
  9
$LOFTPARAM
 70
7
  9
$LOFTNORMALS
280
1
  9
$LATITUDE
 40
37.795
  9
$LONGITUDE
 40
-122.394
  9
$NORTHDIRECTION
 40
0.0
  9
$TIMEZONE
 70
-8000
  9
$LIGHTGLYPHDISPLAY
280
1
  9
$TILEMODELIGHTSYNCH
280
1
  9
$CMATERIAL
347
20
  9
$SOLIDHIST
280
0
  9
$SHOWHIST
280
1
  9
$DWFFRAME
280
2
  9
$DGNFRAME
280
2
  9
$REALWORLDSCALE
290
1
  9
$INTERFERECOLOR
 62
256
  9
$CSHADOW
280
0
  9
$SHADOWPLANELOCATION
 40
0.0
  0
ENDSEC
  0
SECTION
  2
CLASSES
  0
CLASS
  1
ACDBDICTIONARYWDFLT
  2
AcDbDictionaryWithDefault
  3
ObjectDBX Classes
 90
0
 91
0
280
0
281
0
  0
CLASS
  1
SUN
  2
AcDbSun
  3
SCENEOE
 90
1153
 91
0
280
0
281
0
  0
CLASS
  1
VISUALSTYLE
  2
AcDbVisualStyle
  3
ObjectDBX Classes
 90
4095
 91
0
280
0
281
0
  0
CLASS
  1
MATERIAL
  2
AcDbMaterial
  3
ObjectDBX Classes
 90
1153
 91
0
280
0
281
0
  0
CLASS
  1
SCALE
  2
AcDbScale
  3
ObjectDBX Classes
 90
1153
 91
0
280
0
281
0
  0
CLASS
  1
TABLESTYLE
  2
AcDbTableStyle
  3
ObjectDBX Classes
 90
4095
 91
0
280
0
281
0
  0
CLASS
  1
MLEADERSTYLE
  2
AcDbMLeaderStyle
  3
ACDB_MLEADERSTYLE_CLASS
 90
4095
 91
0
280
0
281
0
  0
CLASS
  1
DICTIONARYVAR
  2
AcDbDictionaryVar
  3
ObjectDBX Classes
 90
0
 91
0
280
0
281
0
  0
CLASS
  1
CELLSTYLEMAP
  2
AcDbCellStyleMap
  3
ObjectDBX Classes
 90
1152
 91
0
280
0
281
0
  0
CLASS
  1
MENTALRAYRENDERSETTINGS
  2
AcDbMentalRayRenderSettings
  3
SCENEOE
 90
1024
 91
0
280
0
281
0
  0
CLASS
  1
ACDBDETAILVIEWSTYLE
  2
AcDbDetailViewStyle
  3
ObjectDBX Classes
 90
1025
 91
0
280
0
281
0
  0
CLASS
  1
ACDBSECTIONVIEWSTYLE
  2
AcDbSectionViewStyle
  3
ObjectDBX Classes
 90
1025
 91
0
280
0
281
0
  0
CLASS
  1
RASTERVARIABLES
  2
AcDbRasterVariables
  3
ISM
 90
0
 91
0
280
0
281
0
  0
CLASS
  1
ACDBPLACEHOLDER
  2
AcDbPlaceHolder
  3
ObjectDBX Classes
 90
0
 91
0
280
0
281
0
  0
CLASS
  1
LAYOUT
  2
AcDbLayout
  3
ObjectDBX Classes
 90
0
 91
0
280
0
281
0
  0
ENDSEC
  0
SECTION
  2
TABLES
  0
TABLE
  2
VPORT
  5
8
330
0
100
AcDbSymbolTable
 70
1
  0
VPORT
  5
23
330
8
100
AcDbSymbolTableRecord
100
AcDbViewportTableRecord
  2
*Active
 70
0
 10
0.0
 20
0.0
 11
1.0
 21
1.0
 12
0.0
 22
0.0
 13
0.0
 23
0.0
 14
0.5
 24
0.5
 15
0.5
 25
0.5
 16
0.0
 26
0.0
 36
1.0
 17
0.0
 27
0.0
 37
0.0
 40
1000.0
 41
1.34
 42
50.0
 43
0.0
 44
0.0
 50
0.0
 51
0.0
 71
0
 72
1000
 73
1
 74
3
 75
0
 76
0
 77
0
 78
0
281
0
 65
0
146
0.0
  0
ENDTAB
  0
TABLE
  2
LTYPE
  5
2
330
0
100
AcDbSymbolTable
 70
3
  0
LTYPE
  5
24
330
2
100
AcDbSymbolTableRecord
100
AcDbLinetypeTableRecord
  2
ByBlock
 70
0
  3

 72
65
 73
0
 40
0.0
  0
LTYPE
  5
25
330
2
100
AcDbSymbolTableRecord
100
AcDbLinetypeTableRecord
  2
ByLayer
 70
0
  3

 72
65
 73
0
 40
0.0
  0
LTYPE
  5
26
330
2
100
AcDbSymbolTableRecord
100
AcDbLinetypeTableRecord
  2
Continuous
 70
0
  3

 72
65
 73
0
 40
0.0
  0
ENDTAB
  0
TABLE
  2
LAYER
  5
1
330
0
100
AcDbSymbolTable
 70
2
  0
LAYER
  5
27
330
1
100
AcDbSymbolTableRecord
100
AcDbLayerTableRecord
  2
0
 70
0
 62
7
  6
Continuous
370
-3
390
13
347
21
  0
LAYER
  5
28
330
1
100
AcDbSymbolTableRecord
100
AcDbLayerTableRecord
  2
Defpoints
 70
0
 62
7
  6
Continuous
290
0
370
-3
390
13
347
21
  0
ENDTAB
  0
TABLE
  2
STYLE
  5
5
330
0
100
AcDbSymbolTable
 70
1
  0
STYLE
  5
29
330
5
100
AcDbSymbolTableRecord
100
AcDbTextStyleTableRecord
  2
Standard
 70
0
 40
0.0
 41
1.0
 50
0.0
 71
0
 42
2.5
  3
txt
  4

  0
ENDTAB
  0
TABLE
  2
VIEW
  5
7
330
0
100
AcDbSymbolTable
 70
0
  0
ENDTAB
  0
TABLE
  2
UCS
  5
6
330
0
100
AcDbSymbolTable
 70
0
  0
ENDTAB
  0
TABLE
  2
APPID
  5
3
330
0
100
AcDbSymbolTable
 70
3
  0
APPID
  5
2A
330
3
100
AcDbSymbolTableRecord
100
AcDbRegAppTableRecord
  2
ACAD
 70
0
  0
APPID
  5
3C
330
3
100
AcDbSymbolTableRecord
100
AcDbRegAppTableRecord
  2
HATCHBACKGROUNDCOLOR
 70
0
  0
APPID
  5
3D
330
3
100
AcDbSymbolTableRecord
100
AcDbRegAppTableRecord
  2
EZDXF
 70
0
  0
ENDTAB
  0
TABLE
  2
DIMSTYLE
  5
4
330
0
100
AcDbSymbolTable
 70
1
100
AcDbDimStyleTable
  0
DIMSTYLE
105
2B
330
4
100
AcDbSymbolTableRecord
100
AcDbDimStyleTableRecord
  2
Standard
 70
0
 40
1.0
 41
2.5
 42
0.625
 43
3.75
 44
1.25
 45
0.0
 46
0.0
 47
0.0
 48
0.0
 49
2.5
140
2.5
141
2.5
142
0.0
143
0.03937007874
144
1.0
145
0.0
146
1.0
147
0.625
148
0.0
 69
0
 70
0
 71
0
 72
0
 73
0
 74
0
 75
0
 76
0
 77
1
 78
8
 79
3
170
0
171
3
172
1
173
0
174
0
175
0
176
0
177
0
178
0
179
2
271
2
272
2
273
2
274
3
275
0
276
0
277
2
278
44
279
0
280
0
281
0
282
0
283
0
284
8
285
0
286
0
288
0
289
3
290
0
371
-2
372
-2
  0
ENDTAB
  0
TABLE
  2
BLOCK_RECORD
  5
9
330
0
100
AcDbSymbolTable
 70
3
  0
BLOCK_RECORD
  5
17
330
9
100
AcDbSymbolTableRecord
100
AcDbBlockTableRecord
  2
*Model_Space
340
1A
 70
0
280
1
281
0
  0
BLOCK_RECORD
  5
1B
330
9
100
AcDbSymbolTableRecord
100
AcDbBlockTableRecord
  2
*Paper_Space
340
1E
 70
0
280
1
281
0
  0
BLOCK_RECORD
  5
2F
330
9
100
AcDbSymbolTableRecord
100
AcDbBlockTableRecord
  2
-VGL1
340
0
 70
0
280
1
281
0
  0
ENDTAB
  0
ENDSEC
  0
SECTION
  2
BLOCKS
  0
BLOCK
  5
18
330
17
100
AcDbEntity
  8
0
100
AcDbBlockBegin
  2
*Model_Space
 70
0
 10
0.0
 20
0.0
 30
0.0
  3
*Model_Space
  1

  0
ENDBLK
  5
19
330
17
100
AcDbEntity
  8
0
100
AcDbBlockEnd
  0
BLOCK
  5
1C
330
1B
100
AcDbEntity
  8
0
100
AcDbBlockBegin
  2
*Paper_Space
 70
0
 10
0.0
 20
0.0
 30
0.0
  3
*Paper_Space
  1

  0
ENDBLK
  5
1D
330
1B
100
AcDbEntity
  8
0
100
AcDbBlockEnd
  0
BLOCK
  5
30
330
2F
100
AcDbEntity
  8
0
100
AcDbBlockBegin
  2
-VGL1
 70
0
 10
0.0
 20
0.0
 30
0.0
  3
-VGL1
  1

  0
LINE
  5
32
330
2F
100
AcDbEntity
  8
ATEXT
  6
Continuous
 62
7
100
AcDbLine
 10
0.12500055790249
 20
0.0
 30
0.0
 11
0.12500055790249
 21
0.0
 31
0.0
  0
LINE
  5
33
330
2F
100
AcDbEntity
  8
ATEXT
  6
Continuous
 62
7
100
AcDbLine
 10
-0.12500055790249
 20
0.0
 30
0.0
 11
-0.12500055790249
 21
0.0
 31
0.0
  0
LWPOLYLINE
  5
34
330
2F
100
AcDbEntity
  8
3
  6
Continuous
 62
1
100
AcDbPolyline
 90
6
 70
0
 10
-0.0156250697378113
 20
0.0
 10
-0.0156250697378113
 20
0.0
 10
0.0
 20
0.0156250697378113
 10
0.0156250697378113
 20
0.0
 10
0.0
 20
-0.0156250697378113
 10
-0.0156250697378113
 20
0.0
  0
LWPOLYLINE
  5
35
330
2F
100
AcDbEntity
  8
3
  6
Continuous
 62
1
100
AcDbPolyline
 90
6
 70
0
 10
-0.0312501394756225
 20
0.0
 10
-0.0312501394756225
 20
0.0
 10
0.0
 20
0.0312501394756225
 10
0.0312501394756225
 20
0.0
 10
0.0
 20
-0.0312501394756225
 10
-0.0312501394756225
 20
0.0
  0
LWPOLYLINE
  5
36
330
2F
100
AcDbEntity
  8
3
  6
Continuous
 62
1
100
AcDbPolyline
 90
6
 70
0
 10
-0.0468752092134338
 20
0.0
 10
-0.0468752092134338
 20
0.0
 10
0.0
 20
0.0468752092134338
 10
0.0468752092134338
 20
0.0
 10
0.0
 20
-0.0468752092134338
 10
-0.0468752092134338
 20
0.0
  0
LWPOLYLINE
  5
37
330
2F
100
AcDbEntity
  8
3
  6
Continuous
 62
1
100
AcDbPolyline
 90
96
 70
0
 10
0.0468752092134338
 20
0.0
 10
0.0468465632522477
 20
0.0016357494881764
 10
0.0467609508909761
 20
0.003269545842637
 10
0.0466183721296186
 20
0.0048997614519485
 10
0.0464188269681753
 20
0.0065234666155365
 10
0.0461629664512184
 20
0.0081396847665402
 10
0.0458507905787485
 20
0.0097458117266731
 10
0.0454826248730514
 20
0.0113398943622157
 10
0.0450591203786994
 20
0.0129203050617385
 10
0.0445809281402652
 20
0.0144850906915239
 10
0.0440480481577486
 20
0.0160319725955662
 10
0.0434617825202945
 20
0.0175596486847238
 10
0.0428224567501889
 20
0.0190658403029911
 10
0.0421310474142909
 20
0.0205485943166522
 10
0.0413882055571723
 20
0.0220062831142759
 10
0.0405949077456922
 20
0.0234376046067169
 10
0.039752130546709
 20
0.0248399546156852
 10
0.0388611760493677
 20
0.0262120310520373
 10
0.0379226952982403
 20
0.0275525318266266
 10
0.0369379903824719
 20
0.0288591782834508
 10
0.0359083633912075
 20
0.0301306683333649
 10
0.0348347908913054
 20
0.0313653743649393
 10
0.0337189004941967
 20
0.0325619942890271
 10
0.0325619942890262
 20
0.0337189004941969
 10
0.0313653743649388
 20
0.0348347908913056
 10
0.0301306683333656
 20
0.0359083633912079
 10
0.0288591782834513
 20
0.0369379903824726
 10
0.0275525318266268
 20
0.0379226952982408
 10
0.0262120310520369
 20
0.0388611760493674
 10
0.0248399546156854
 20
0.0397521305467092
 10
0.0234372790844306
 20
0.0405949077456918
 10
0.0220062831142761
 20
0.0413882055571719
 10
0.0205485943166529
 20
0.0421310474142907
 10
0.0190658403029918
 20
0.0428224567501893
 10
0.017559648684724
 20
0.0434617825202936
 10
0.0160319725955668
 20
0.0440480481577481
 10
0.0144850906915235
 20
0.0445809281402649
 10
0.012920305061739
 20
0.0450591203786989
 10
0.0113398943622166
 20
0.0454826248730519
 10
0.0097458117266735
 20
0.0458507905787477
 10
0.0081396847665411
 20
0.0461629664512191
 10
0.0065234666155363
 20
0.0464188269681746
 10
0.0048997614519485
 20
0.0466183721296177
 10
0.003269545842637
 20
0.0467609508909758
 10
0.0016357494881771
 20
0.0468465632522473
 10
-3.255222863e-07
 20
0.0468752092134338
 10
-0.0016360750104633
 20
0.0468465632522473
 10
-0.0032698713649232
 20
0.0467609508909758
 10
-0.0049000869742348
 20
0.0466183721296177
 10
-0.0065237921378223
 20
0.0464188269681746
 10
-0.0081400102888274
 20
0.0461629664512191
 10
-0.0097461372489598
 20
0.0458507905787477
 10
-0.0113402198845027
 20
0.0454826248730519
 10
-0.012920630584025
 20
0.0450591203786989
 10
-0.0144854162138097
 20
0.0445809281402649
 10
-0.0160322981178529
 20
0.0440480481577481
 10
-0.0175599742070103
 20
0.0434617825202936
 10
-0.019066165825278
 20
0.0428224567501893
 10
-0.020548919838939
 20
0.0421310474142907
 10
-0.0220066086365624
 20
0.0413882055571719
 10
-0.0234379301290032
 20
0.0405949077456918
 10
-0.0248402801379716
 20
0.0397521305467092
 10
-0.0262123565743232
 20
0.0388611760493674
 10
-0.0275528573489129
 20
0.0379226952982408
 10
-0.0288595038057373
 20
0.0369379903824726
 10
-0.0301309938556518
 20
0.0359083633912079
 10
-0.0313656998872251
 20
0.0348347908913056
 10
-0.0325623198113124
 20
0.0337189004941969
 10
-0.033719226016483
 20
0.0325619942890271
 10
-0.0348351164135916
 20
0.0313653743649393
 10
-0.0359086889134938
 20
0.0301306683333649
 10
-0.0369383159047582
 20
0.0288591782834508
 10
-0.0379230208205266
 20
0.0275525318266266
 10
-0.0388615015716539
 20
0.0262120310520373
 10
-0.0397524560689953
 20
0.0248399546156852
 10
-0.0405952332679785
 20
0.0234372790844306
 10
-0.0413885310794586
 20
0.0220062831142759
 10
-0.0421313729365769
 20
0.0205485943166522
 10
-0.0428227822724752
 20
0.0190658403029911
 10
-0.0434621080425807
 20
0.0175596486847238
 10
-0.0440483736800348
 20
0.0160319725955662
 10
-0.0445812536625514
 20
0.0144850906915239
 10
-0.0450594459009856
 20
0.0129203050617385
 10
-0.0454829503953375
 20
0.0113398943622157
 10
-0.0458511161010348
 20
0.0097458117266731
 10
-0.0461632919735047
 20
0.0081396847665402
 10
-0.0464191524904613
 20
0.0065234666155365
 10
-0.0466186976519046
 20
0.0048997614519485
 10
-0.0467612764132623
 20
0.003269545842637
 10
-0.046846888774534
 20
0.0016357494881764
 10
-0.0468752092134338
 20
-3.255222863e-07
 10
-0.046846888774534
 20
-0.0016360750104627
 10
-0.0467612764132623
 20
-0.0032698713649232
 10
-0.0466186976519046
 20
-0.0049000869742348
 10
-0.0464191524904613
 20
-0.0065237921378228
 10
-0.0461632919735047
 20
-0.0081400102888265
  0
LWPOLYLINE
  5
38
330
2F
100
AcDbEntity
  8
3
  6
Continuous
 62
1
100
AcDbPolyline
 90
86
 70
0
 10
-0.0461632919735047
 20
-0.0081400102888265
 10
-0.0458511161010348
 20
-0.0097461372489593
 10
-0.0454829503953375
 20
-0.011340219884502
 10
-0.0450594459009856
 20
-0.0129206305840248
 10
-0.0445812536625514
 20
-0.0144854162138102
 10
-0.0440483736800348
 20
-0.0160322981178525
 10
-0.0434621080425807
 20
-0.0175599742070101
 10
-0.0428227822724752
 20
-0.0190661658252774
 10
-0.0421313729365769
 20
-0.0205489198389385
 10
-0.0413885310794586
 20
-0.0220066086365621
 10
-0.0405952332679785
 20
-0.0234379301290032
 10
-0.0397524560689953
 20
-0.0248402801379714
 10
-0.0388615015716539
 20
-0.0262123565743236
 10
-0.0379230208205266
 20
-0.0275528573489129
 10
-0.0369383159047582
 20
-0.0288595038057371
 10
-0.0359086889134938
 20
-0.0301309938556512
 10
-0.0348351164135916
 20
-0.0313656998872255
 10
-0.033719226016483
 20
-0.0325623198113133
 10
-0.0325623198113124
 20
-0.0337192260164832
 10
-0.0313656998872251
 20
-0.0348351164135919
 10
-0.0301309938556518
 20
-0.0359086889134942
 10
-0.0288595038057373
 20
-0.0369383159047589
 10
-0.0275528573489129
 20
-0.0379230208205271
 10
-0.0262123565743232
 20
-0.0388615015716537
 10
-0.0248402801379716
 20
-0.0397524560689955
 10
-0.0234376046067169
 20
-0.0405952332679781
 10
-0.0220066086365624
 20
-0.0413885310794581
 10
-0.020548919838939
 20
-0.0421313729365769
 10
-0.019066165825278
 20
-0.0428227822724756
 10
-0.0175599742070103
 20
-0.0434621080425799
 10
-0.0160322981178529
 20
-0.0440483736800344
 10
-0.0144854162138097
 20
-0.0445812536625512
 10
-0.012920630584025
 20
-0.0450594459009852
 10
-0.0113402198845027
 20
-0.0454829503953381
 10
-0.0097461372489598
 20
-0.0458511161010339
 10
-0.0081400102888274
 20
-0.0461632919735054
 10
-0.0065237921378223
 20
-0.0464191524904609
 10
-0.0049000869742348
 20
-0.046618697651904
 10
-0.0032698713649232
 20
-0.0467612764132621
 10
-0.0016360750104633
 20
-0.0468468887745336
 10
0.0
 20
-0.0468752092134338
 10
0.0016357494881771
 20
-0.0468468887745336
 10
0.003269545842637
 20
-0.0467612764132621
 10
0.0048997614519485
 20
-0.046618697651904
 10
0.0065234666155363
 20
-0.0464191524904609
 10
0.0081396847665411
 20
-0.0461632919735054
 10
0.0097458117266735
 20
-0.0458511161010339
 10
0.0113398943622166
 20
-0.0454829503953381
 10
0.012920305061739
 20
-0.0450594459009852
 10
0.0144850906915235
 20
-0.0445812536625512
 10
0.0160319725955668
 20
-0.0440483736800344
 10
0.017559648684724
 20
-0.0434621080425799
 10
0.0190658403029918
 20
-0.0428227822724756
 10
0.0205485943166529
 20
-0.0421313729365769
 10
0.0220062831142761
 20
-0.0413885310794581
 10
0.0234376046067169
 20
-0.0405952332679781
 10
0.0248399546156854
 20
-0.0397524560689955
 10
0.0262120310520369
 20
-0.0388615015716537
 10
0.0275525318266268
 20
-0.0379230208205271
 10
0.0288591782834513
 20
-0.0369383159047589
 10
0.0301306683333656
 20
-0.0359086889134942
 10
0.0313653743649388
 20
-0.0348351164135919
 10
0.0325619942890262
 20
-0.0337192260164832
 10
0.0337189004941967
 20
-0.0325623198113133
 10
0.0348347908913054
 20
-0.0313656998872255
 10
0.0359083633912075
 20
-0.0301309938556512
 10
0.0369379903824719
 20
-0.0288595038057371
 10
0.0379226952982403
 20
-0.0275528573489129
 10
0.0388611760493677
 20
-0.0262123565743236
 10
0.039752130546709
 20
-0.0248402801379714
 10
0.0405949077456922
 20
-0.0234376046067169
 10
0.0413882055571723
 20
-0.0220066086365621
 10
0.0421310474142909
 20
-0.0205489198389385
 10
0.0428224567501889
 20
-0.0190661658252774
 10
0.0434617825202945
 20
-0.0175599742070101
 10
0.0440480481577486
 20
-0.0160322981178525
 10
0.0445809281402652
 20
-0.0144854162138102
 10
0.0450591203786994
 20
-0.0129206305840248
 10
0.0454826248730514
 20
-0.011340219884502
 10
0.0458507905787485
 20
-0.0097461372489593
 10
0.0461629664512184
 20
-0.0081400102888265
 10
0.0464188269681753
 20
-0.0065237921378228
 10
0.0466183721296186
 20
-0.0049000869742348
 10
0.0467609508909761
 20
-0.0032698713649232
 10
0.0468465632522477
 20
-0.0016360750104627
 10
0.0468748836911475
 20
-3.255222863e-07
  0
LWPOLYLINE
  5
39
330
2F
100
AcDbEntity
  8
3
  6
Continuous
 62
1
100
AcDbPolyline
 90
6
 70
0
 10
-0.12500055790249
 20
-0.062500278951245
 10
-0.12500055790249
 20
-0.062500278951245
 10
-0.12500055790249
 20
0.062500278951245
 10
0.12500055790249
 20
-0.062500278951245
 10
0.12500055790249
 20
0.062500278951245
 10
-0.12500055790249
 20
-0.062500278951245
  0
ENDBLK
  5
31
330
2F
100
AcDbEntity
  8
0
100
AcDbBlockEnd
  0
ENDSEC
  0
SECTION
  2
ENTITIES
  0
INSERT
  5
3A
330
17
100
AcDbEntity
  8
0
100
AcDbBlockReference
  2
-VGL1
 10
0.0
 20
0.0
 30
0.0
  0
ENDSEC
  0
SECTION
  2
OBJECTS
  0
DICTIONARY
  5
A
330
0
100
AcDbDictionary
280
0
281
1
  3
ACAD_COLOR
350
B
  3
ACAD_GROUP
350
C
  3
ACAD_LAYOUT
350
D
  3
ACAD_MATERIAL
350
E
  3
ACAD_MLEADERSTYLE
350
F
  3
ACAD_MLINESTYLE
350
10
  3
ACAD_PLOTSETTINGS
350
11
  3
ACAD_PLOTSTYLENAME
350
12
  3
ACAD_SCALELIST
350
14
  3
ACAD_TABLESTYLE
350
15
  3
ACAD_VISUALSTYLE
350
16
  3
EZDXF_META
350
2D
  0
DICTIONARY
  5
B
330
A
100
AcDbDictionary
280
0
281
1
  0
DICTIONARY
  5
C
330
A
100
AcDbDictionary
280
0
281
1
  0
DICTIONARY
  5
D
330
A
100
AcDbDictionary
280
0
281
1
  3
Model
350
1A
  3
Layout1
350
1E
  0
DICTIONARY
  5
E
330
A
100
AcDbDictionary
280
0
281
1
  3
ByBlock
350
1F
  3
ByLayer
350
20
  3
Global
350
21
  0
DICTIONARY
  5
F
330
A
100
AcDbDictionary
280
0
281
1
  3
Standard
350
2C
  0
DICTIONARY
  5
10
330
A
100
AcDbDictionary
280
0
281
1
  3
Standard
350
22
  0
DICTIONARY
  5
11
330
A
100
AcDbDictionary
280
0
281
1
  0
ACDBDICTIONARYWDFLT
  5
12
330
A
100
AcDbDictionary
280
0
281
1
  3
Normal
350
13
100
AcDbDictionaryWithDefault
340
13
  0
ACDBPLACEHOLDER
  5
13
330
12
  0
DICTIONARY
  5
14
330
A
100
AcDbDictionary
280
0
281
1
  0
DICTIONARY
  5
15
330
A
100
AcDbDictionary
280
0
281
1
  0
DICTIONARY
  5
16
330
A
100
AcDbDictionary
280
0
281
1
  0
LAYOUT
  5
1A
330
D
100
AcDbPlotSettings
  1

  4
A3
  6

 40
7.5
 41
20.0
 42
7.5
 43
20.0
 44
420.0
 45
297.0
 46
0.0
 47
0.0
 48
0.0
 49
0.0
140
0.0
141
0.0
142
1.0
143
1.0
 70
1024
 72
1
 73
0
 74
5
  7

 75
16
 76
0
 77
2
 78
300
147
1.0
148
0.0
149
0.0
100
AcDbLayout
  1
Model
 70
1
 71
0
 10
0.0
 20
0.0
 11
420.0
 21
297.0
 12
0.0
 22
0.0
 32
0.0
 14
1e+20
 24
1e+20
 34
1e+20
 15
-1e+20
 25
-1e+20
 35
-1e+20
146
0.0
 13
0.0
 23
0.0
 33
0.0
 16
1.0
 26
0.0
 36
0.0
 17
0.0
 27
1.0
 37
0.0
 76
1
330
17
  0
LAYOUT
  5
1E
330
D
100
AcDbPlotSettings
  1

  4
A3
  6

 40
7.5
 41
20.0
 42
7.5
 43
20.0
 44
420.0
 45
297.0
 46
0.0
 47
0.0
 48
0.0
 49
0.0
140
0.0
141
0.0
142
1.0
143
1.0
 70
0
 72
1
 73
0
 74
5
  7

 75
16
 76
0
 77
2
 78
300
147
1.0
148
0.0
149
0.0
100
AcDbLayout
  1
Layout1
 70
1
 71
1
 10
0.0
 20
0.0
 11
420.0
 21
297.0
 12
0.0
 22
0.0
 32
0.0
 14
1e+20
 24
1e+20
 34
1e+20
 15
-1e+20
 25
-1e+20
 35
-1e+20
146
0.0
 13
0.0
 23
0.0
 33
0.0
 16
1.0
 26
0.0
 36
0.0
 17
0.0
 27
1.0
 37
0.0
 76
1
330
1B
  0
MATERIAL
  5
1F
102
{ACAD_REACTORS
330
E
102
}
330
E
100
AcDbMaterial
  1
ByBlock
  2

 70
0
 40
1.0
 71
1
 41
1.0
 91
-1023410177
 42
1.0
 72
1
  3

 73
1
 74
1
 75
1
 44
0.5
 73
0
 45
1.0
 46
1.0
 77
1
  4

 78
1
 79
1
170
1
 48
1.0
171
1
  6

172
1
173
1
174
1
140
1.0
141
1.0
175
1
  7

176
1
177
1
178
1
143
1.0
179
1
  8

270
1
271
1
272
1
145
1.0
146
1.0
273
1
  9

274
1
275
1
276
1
 42
1.0
 72
1
  3

 73
1
 74
1
 75
1
 94
63
  0
MATERIAL
  5
20
102
{ACAD_REACTORS
330
E
102
}
330
E
100
AcDbMaterial
  1
ByLayer
  2

 70
0
 40
1.0
 71
1
 41
1.0
 91
-1023410177
 42
1.0
 72
1
  3

 73
1
 74
1
 75
1
 44
0.5
 73
0
 45
1.0
 46
1.0
 77
1
  4

 78
1
 79
1
170
1
 48
1.0
171
1
  6

172
1
173
1
174
1
140
1.0
141
1.0
175
1
  7

176
1
177
1
178
1
143
1.0
179
1
  8

270
1
271
1
272
1
145
1.0
146
1.0
273
1
  9

274
1
275
1
276
1
 42
1.0
 72
1
  3

 73
1
 74
1
 75
1
 94
63
  0
MATERIAL
  5
21
102
{ACAD_REACTORS
330
E
102
}
330
E
100
AcDbMaterial
  1
Global
  2

 70
0
 40
1.0
 71
1
 41
1.0
 91
-1023410177
 42
1.0
 72
1
  3

 73
1
 74
1
 75
1
 44
0.5
 73
0
 45
1.0
 46
1.0
 77
1
  4

 78
1
 79
1
170
1
 48
1.0
171
1
  6

172
1
173
1
174
1
140
1.0
141
1.0
175
1
  7

176
1
177
1
178
1
143
1.0
179
1
  8

270
1
271
1
272
1
145
1.0
146
1.0
273
1
  9

274
1
275
1
276
1
 42
1.0
 72
1
  3

 73
1
 74
1
 75
1
 94
63
  0
MLINESTYLE
  5
22
102
{ACAD_REACTORS
330
10
102
}
330
10
100
AcDbMlineStyle
  2
Standard
 70
0
  3

 62
256
 51
90.0
 52
90.0
 71
2
 49
0.5
 62
256
  6
BYLAYER
 49
-0.5
 62
256
  6
BYLAYER
  0
MLEADERSTYLE
  5
2C
102
{ACAD_REACTORS
330
F
102
}
330
F
100
AcDbMLeaderStyle
179
2
170
2
171
1
172
0
 90
2
 40
0.0
 41
0.0
173
1
 91
-1056964608
 92
-2
290
1
 42
2.0
291
1
 43
8.0
  3
Standard
 44
4.0
300

342
29
174
1
175
1
176
0
178
1
 93
-1056964608
 45
4.0
292
0
297
0
 46
4.0
 94
-1056964608
 47
1.0
 49
1.0
140
1.0
294
1
141
0.0
177
0
142
1.0
295
0
296
0
143
3.75
271
0
272
9
273
9
  0
DICTIONARY
  5
2D
330
A
100
AcDbDictionary
280
1
281
1
  3
CREATED_BY_EZDXF
350
2E
  3
WRITTEN_BY_EZDXF
350
3E
  0
DICTIONARYVAR
  5
2E
330
2D
100
DictionaryVariables
280
0
  1
1.3.5 @ 2025-01-05T14:41:01.452578+00:00
  0
DICTIONARYVAR
  5
3E
330
2D
100
DictionaryVariables
280
0
  1
1.3.5 @ 2025-01-05T14:41:01.454634+00:00
  0
ENDSEC
  0
EOF
